<svg aria-hidden="true" style="position: absolute; width: 0; height: 0; overflow: hidden;" version="1.1" xmlns="http://www.w3.org/2000/svg" xmlns:xlink="http://www.w3.org/1999/xlink">
<defs>
<symbol id="icon-inst" viewBox="0 0 32 32">
<path d="M16 2.88c4.275 0 4.781 0.020 6.463 0.095 1.563 0.069 2.407 0.332 2.968 0.551 0.721 0.27 1.335 0.676 1.838 1.192l0.001 0.001c0.561 0.563 0.907 1.093 1.193 1.837 0.219 0.563 0.48 1.413 0.549 2.969 0.076 1.687 0.093 2.193 0.093 6.463 0 4.275-0.017 4.781-0.093 6.461-0.068 1.563-0.331 2.407-0.549 2.969-0.27 0.72-0.677 1.334-1.192 1.836l-0.001 0.001c-0.503 0.518-1.117 0.925-1.805 1.182l-0.034 0.011c-0.561 0.22-1.412 0.481-2.968 0.551-1.688 0.075-2.193 0.093-6.463 0.093-4.275 0-4.781-0.019-6.463-0.093-1.563-0.069-2.407-0.331-2.968-0.551-0.721-0.27-1.335-0.676-1.838-1.192l-0.001-0.001c-0.518-0.503-0.924-1.117-1.182-1.803l-0.011-0.034c-0.219-0.563-0.48-1.413-0.549-2.969-0.076-1.687-0.093-2.193-0.093-6.461 0-4.276 0.017-4.781 0.093-6.463 0.068-1.563 0.331-2.407 0.549-2.969 0.288-0.744 0.637-1.28 1.193-1.837 0.563-0.563 1.093-0.907 1.839-1.193 0.561-0.219 1.412-0.481 2.968-0.551 1.681-0.075 2.187-0.093 6.463-0.093zM16 0c-4.344 0-4.888 0.019-6.593 0.093-1.7 0.076-2.869 0.351-3.881 0.744-1.111 0.424-2.058 1.054-2.836 1.849l-0.001 0.001c-0.795 0.778-1.425 1.723-1.832 2.777l-0.018 0.054c-0.393 1.019-0.668 2.181-0.744 3.881-0.075 1.712-0.093 2.256-0.093 6.6s0.019 4.888 0.093 6.593c0.076 1.7 0.351 2.869 0.744 3.881 0.413 1.056 0.956 1.951 1.851 2.837 0.778 0.793 1.723 1.42 2.777 1.826l0.054 0.018c1.019 0.395 2.181 0.669 3.881 0.744 1.707 0.075 2.251 0.093 6.593 0.093 4.344 0 4.888-0.019 6.595-0.093 1.7-0.075 2.868-0.349 3.88-0.744 1.108-0.423 2.053-1.051 2.831-1.843l0.001-0.001c0.793-0.778 1.42-1.723 1.826-2.777l0.018-0.054c0.393-1.019 0.668-2.181 0.744-3.881 0.075-1.707 0.093-2.251 0.093-6.593 0-4.344-0.019-4.888-0.093-6.595-0.076-1.7-0.351-2.868-0.744-3.88-0.408-1.116-1.033-2.067-1.83-2.842l-0.002-0.002c-0.778-0.793-1.723-1.42-2.777-1.826l-0.054-0.018c-1.019-0.393-2.181-0.671-3.881-0.744-1.712-0.080-2.256-0.1-6.6-0.1z"></path>
<path d="M16 7.781c-4.538 0.002-8.217 3.68-8.219 8.219v0c0.002 4.538 3.68 8.217 8.219 8.219h0c4.538-0.002 8.217-3.68 8.219-8.219v-0c-0.002-4.538-3.68-8.217-8.219-8.219h-0zM16 21.331c-2.944-0-5.331-2.387-5.331-5.332s2.387-5.332 5.332-5.332c0 0 0 0 0.001 0h-0c2.945 0 5.331 2.387 5.331 5.332s-2.387 5.332-5.332 5.332c-0 0-0 0-0.001 0h0zM26.463 7.456c0 0.015 0.001 0.033 0.001 0.051 0 1.060-0.86 1.92-1.92 1.92s-1.92-0.86-1.92-1.92c0-0.018 0-0.036 0.001-0.053l-0 0.003c0.028-1.038 0.877-1.869 1.919-1.869s1.891 0.831 1.919 1.867l0 0.003z"></path>
</symbol>
<symbol id="icon-tg" viewBox="0 0 32 32">
<path d="M32 16c0 8.836-7.164 16-16 16s-16-7.164-16-16 7.164-16 16-16 16 7.164 16 16zM16.573 11.812c-1.556 0.647-4.667 1.987-9.331 4.019-0.757 0.301-1.155 0.596-1.191 0.884-0.061 0.488 0.549 0.68 1.379 0.94 0.113 0.036 0.231 0.072 0.351 0.112 0.817 0.265 1.916 0.576 2.487 0.588 0.519 0.011 1.097-0.203 1.736-0.64 4.357-2.943 6.607-4.429 6.748-4.461 0.1-0.023 0.239-0.052 0.332 0.032 0.093 0.083 0.084 0.24 0.075 0.283-0.061 0.257-2.453 2.483-3.693 3.635-0.387 0.359-0.66 0.613-0.716 0.672-0.125 0.129-0.253 0.253-0.376 0.372-0.76 0.731-1.328 1.28 0.032 2.176 0.653 0.431 1.176 0.787 1.697 1.141 0.569 0.388 1.137 0.775 1.873 1.257 0.187 0.123 0.365 0.249 0.54 0.373 0.663 0.473 1.259 0.897 1.995 0.831 0.427-0.040 0.869-0.441 1.093-1.64 0.529-2.835 1.572-8.973 1.813-11.504 0.004-0.059 0.007-0.127 0.007-0.196 0-0.153-0.012-0.303-0.036-0.45l0.002 0.016c-0.021-0.174-0.105-0.325-0.229-0.433l-0.001-0.001c-0.191-0.156-0.487-0.189-0.62-0.187-0.601 0.011-1.524 0.332-5.968 2.18z"></path>
</symbol>
<symbol id="icon-yt" viewBox="0 0 43 32">
<path d="M42.24 7.467s-0.414-2.942-1.698-4.233c-1.627-1.701-3.442-1.708-4.276-1.812-5.966-0.43-14.924-0.43-14.924-0.43h-0.018s-8.958 0-14.924 0.43c-0.834 0.103-2.649 0.11-4.276 1.813-1.284 1.291-1.691 4.231-1.691 4.231s-0.434 3.46-0.434 6.91v3.232c0 3.451 0.427 6.908 0.427 6.908s0.414 2.942 1.689 4.235c1.627 1.7 3.76 1.641 4.711 1.824 3.413 0.325 14.507 0.427 14.507 0.427s8.967-0.018 14.933-0.444c0.834-0.098 2.649-0.107 4.276-1.806 1.284-1.292 1.7-4.235 1.7-4.235s0.425-3.451 0.425-6.91v-3.232c0-3.449-0.427-6.908-0.427-6.908zM16.924 21.532v-11.991l11.525 6.016-11.525 5.975z"></path>
</symbol>
</defs>
</svg>